<svg height="512" viewBox="0 0 128 128" width="512" xmlns="http://www.w3.org/2000/svg"><g id="Circle_Grid" data-name="Circle Grid"><circle cx="64" cy="64" fill="#69b0ee" r="64"/></g><g id="icon"><path d="m48.129 41.96h2.269v4.773h-2.269z" fill="#eeefee"/><circle cx="90.756" cy="73.578" fill="none" r="1.183"/><path d="m61.775 77.177c-.038 0-.075 0-.114-.006l-24.426-2.462a1.137 1.137 0 0 1 -.91-1.623l11.924-24.83a1.136 1.136 0 0 1 1.024-.645h30.882a1.136 1.136 0 1 1 0 2.273h-30.166l-10.914 22.726 22.2 2.239 19.268-23.83a1.136 1.136 0 1 1 1.767 1.429l-19.651 24.307a1.135 1.135 0 0 1 -.884.422z" fill="#ef5261"/><path d="m62.245 77.078a1.186 1.186 0 0 1 -.477.091 1.084 1.084 0 0 1 -1.023-.659l-12.5-27.3a1.034 1.034 0 0 1 -.114-.455v-4.26h2.269v4.012l12.41 27.071a1.149 1.149 0 0 1 -.565 1.5z" fill="#ef5261"/><path d="m43.685 37.221 6.549 1.351a6.261 6.261 0 0 0 1.266.128h1.953a2.877 2.877 0 0 1 2.877 2.877v.011a.955.955 0 0 1 -1.017.953 60.7 60.7 0 0 0 -11.01.283l-.744.087a1.476 1.476 0 0 1 -1.648-1.466v-2.778a1.476 1.476 0 0 1 1.774-1.446z" fill="#414451"/><path d="m90.858 45.143h-2.273a3.5 3.5 0 0 0 -3.5-3.478h-8.475v-2.273h8.475a5.777 5.777 0 0 1 5.773 5.751z" fill="#eeefee"/><path d="m84.491 50v-.89a1.1 1.1 0 0 1 1.1-1.1 2.586 2.586 0 0 0 2.586-2.586 1.062 1.062 0 0 1 1.062-1.062h.961a1.062 1.062 0 0 1 1.062 1.062 5.673 5.673 0 0 1 -5.673 5.676 1.1 1.1 0 0 1 -1.098-1.1z" fill="#414451"/><path d="m90.748 56.348a17.229 17.229 0 1 0 17.252 17.23 17.233 17.233 0 0 0 -17.252-17.23zm0 31.061a13.832 13.832 0 1 1 13.832-13.832 13.838 13.838 0 0 1 -13.832 13.832z" fill="#414451"/><g fill="#eeefee"><path d="m90.748 59.2a14.374 14.374 0 1 0 14.4 14.373 14.385 14.385 0 0 0 -14.4-14.373zm0 27.58a13.206 13.206 0 1 1 13.206-13.206 13.212 13.212 0 0 1 -13.206 13.21z"/><path d="m91.338 73.526h.568v14.357h-.568z" transform="matrix(.993 -.12 .12 .993 -9.037 11.599)"/><path d="m94.785 72.139h.569v14.357h-.569z" transform="matrix(.8 -.6 .6 .8 -28.581 72.982)"/><path d="m97.079 69.215h.567v14.357h-.567z" transform="matrix(.392 -.92 .92 .392 -11.099 135.988)"/><path d="m90.707 72.431h14.357v.568h-14.357z" transform="matrix(.993 -.121 .121 .993 -8.088 12.394)"/><path d="m89.321 68.982h14.357v.569h-14.357z" transform="matrix(.8 -.601 .601 .8 -22.258 71.846)"/><path d="m86.397 66.691h14.357v.567h-14.357z" transform="matrix(.392 -.92 .92 .392 -4.692 126.854)"/><path d="m89.612 59.273h.568v14.357h-.568z" transform="matrix(.993 -.12 .12 .993 -7.336 11.288)"/><path d="m86.164 60.659h.569v14.357h-.569z" transform="matrix(.8 -.6 .6 .8 -23.414 65.505)"/></g><path d="m83.873 63.584h.567v14.357h-.567z" fill="#dbd8dd" transform="matrix(.392 -.92 .92 .392 -13.945 120.418)"/><path d="m83.873 63.584h.567v14.357h-.567z" fill="#eeefee" transform="matrix(.392 -.92 .92 .392 -13.945 120.418)"/><path d="m76.454 74.157h14.357v.568h-14.357z" fill="#eeefee" transform="matrix(.993 -.121 .121 .993 -8.402 10.68)"/><path d="m77.842 77.604h14.356v.569h-14.356z" fill="#eeefee" transform="matrix(.8 -.601 .601 .8 -29.738 66.679)"/><path d="m80.765 79.897h14.357v.567h-14.357z" fill="#eeefee" transform="matrix(.392 -.92 .92 .392 -20.27 129.707)"/><path d="m41.874 56.982a17.229 17.229 0 1 0 11.974 21.239 17.233 17.233 0 0 0 -11.974-21.239zm-8.34 29.818a13.737 13.737 0 1 1 16.929-9.529 13.743 13.743 0 0 1 -16.929 9.529z" fill="#414451"/><path d="m41.1 59.757a14.347 14.347 0 1 0 9.974 17.687 14.359 14.359 0 0 0 -9.974-17.687zm-7.423 26.536a13.206 13.206 0 1 1 16.275-9.161 13.212 13.212 0 0 1 -16.275 9.161z" fill="#eeefee"/><path d="m28.978 80.389h14.357v.568h-14.357z" fill="#eeefee" transform="matrix(.152 -.988 .988 .152 -49.066 104.181)"/><path d="m39.565 73.088h.569v14.357h-.569z" fill="#eeefee" transform="matrix(.932 -.363 .363 .932 -26.415 19.937)"/><path d="m42.562 70.889h.567v14.357h-.567z" fill="#eeefee" transform="matrix(.625 -.78 .78 .625 -44.865 62.666)"/><path d="m44.056 67.487h.568v14.357h-.568z" fill="#eeefee" transform="matrix(.151 -.989 .989 .151 -36.154 107.25)"/><path d="m36.755 70.688h14.357v.569h-14.357z" fill="#eeefee" transform="matrix(.932 -.363 .363 .932 -22.772 20.796)"/><path d="m34.556 67.693h14.357v.567h-14.357z" fill="#eeefee" transform="matrix(.625 -.781 .781 .625 -37.415 58.08)"/><path d="m31.154 66.198h14.357v.568h-14.357z" fill="#eeefee" transform="matrix(.152 -.988 .988 .152 -33.192 94.293)"/><path d="m34.354 59.71h.569v14.357h-.569z" fill="#eeefee" transform="matrix(.932 -.363 .363 .932 -21.915 17.133)"/><path d="m31.36 61.909h.567v14.357h-.567z" fill="#dbd8dd" transform="matrix(.625 -.78 .78 .625 -42.054 50.563)"/><path d="m31.36 61.909h.567v14.357h-.567z" fill="#eeefee" transform="matrix(.625 -.78 .78 .625 -42.054 50.563)"/><path d="m29.865 65.311h.568v14.357h-.568z" fill="#eeefee" transform="matrix(.151 -.989 .989 .151 -46.055 91.372)"/><path d="m23.378 75.899h14.356v.569h-14.356z" fill="#eeefee" transform="matrix(.932 -.363 .363 .932 -25.577 16.294)"/><path d="m25.576 78.895h14.357v.567h-14.357z" fill="#eeefee" transform="matrix(.625 -.781 .781 .625 -49.529 55.271)"/><path d="m90.756 74.714a1.137 1.137 0 0 1 -1.045-.69l-14.111-33.053a1.137 1.137 0 0 1 2.091-.892l14.109 33.053a1.136 1.136 0 0 1 -1.045 1.583z" fill="#ef5261"/><circle cx="90.756" cy="73.578" fill="#414451" r="3.078"/><circle cx="90.756" cy="73.578" fill="#eeefee" r="1.106"/><path d="m62.239 75.933-1.174-.208 1.863-10.239 1.174.208z" fill="#dbd8dd"/><rect fill="#414451" height="2.242" rx="1.116" width="5.215" x="60.907" y="64.469"/><path d="m61.094 75.431 1.173.208-1.862 10.239-1.174-.208z" fill="#dbd8dd"/><rect fill="#414451" height="2.242" rx="1.116" width="5.215" x="57.21" y="84.653"/><path d="m62.182 80.527-26.648-5.118-.034-3.994 26.987-.207 1.877.874 1.982 3.258-.694 3.069zm-26.075-5.768 25.869 4.667 2.753-1.679.5-2.224-1.6-2.625-1.485-.692-26.043-.171z" fill="#414451"/><circle cx="61.654" cy="75.831" fill="#eeefee" r="4.731"/><circle cx="61.654" cy="75.831" fill="#414451" r="3.539"/><circle cx="61.654" cy="75.831" fill="#eeefee" r="1.154"/><circle cx="37.245" cy="73.578" fill="#414451" r="3.078"/><circle cx="37.245" cy="73.578" fill="#eeefee" r="1.106"/></g></svg>