<svg height="512" viewBox="0 0 128 128" width="512" xmlns="http://www.w3.org/2000/svg"><g id="Circle_Grid" data-name="Circle Grid"><circle cx="64" cy="64" fill="#2cbfae" r="64"/></g><g id="icon"><path d="m105.89 64.005a42.072 42.072 0 1 1 -42.09-42.09 41.966 41.966 0 0 1 42.09 42.09z" fill="#dbd8dd"/><path d="m101.3 68.585a41.885 41.885 0 0 1 -10.15 27.4 42.074 42.074 0 0 1 -59.3-59.35 42.069 42.069 0 0 1 69.45 31.95z" fill="#eeefee"/><path d="m71.45 35.155a7.483 7.483 0 1 1 -.72-3.17v.01a7.15 7.15 0 0 1 .72 3.16z" fill="#eab54e"/><path d="m70.73 31.985v.01a7.443 7.443 0 0 1 -14.18 3.16 7.443 7.443 0 0 1 14.18-3.17z" fill="#f6c863"/><path d="m51.45 43.785a7.447 7.447 0 0 1 -14.79 1.24 7.238 7.238 0 0 1 -.11-1.24 7.45 7.45 0 0 1 14.9 0z" fill="#da364c"/><path d="m50.4 41.035a7.449 7.449 0 0 1 -13.74 3.99 7.238 7.238 0 0 1 -.11-1.24 7.449 7.449 0 0 1 13.74-3.99 6.356 6.356 0 0 1 .11 1.24z" fill="#ef5261"/><path d="m42.95 64.005a7.449 7.449 0 0 1 -14.55 2.24 7.241 7.241 0 0 1 -.35-2.24 7.45 7.45 0 0 1 14.9 0z" fill="#16a897"/><path d="m41.45 61.345a7.442 7.442 0 0 1 -13.05 4.9 7.241 7.241 0 0 1 -.35-2.24 7.442 7.442 0 0 1 13.05-4.905 7.242 7.242 0 0 1 .35 2.245z" fill="#2cbfae"/><path d="m51.45 84.225a7.475 7.475 0 1 1 -1.95-5.01 7.447 7.447 0 0 1 1.95 5.01z" fill="#419be9"/><path d="m49.78 81.225a7.44 7.44 0 0 1 -12.95 5 7.438 7.438 0 0 1 12.67-7.01 7.393 7.393 0 0 1 .28 2.01z" fill="#69b0ee"/><path d="m71.25 92.835a7.439 7.439 0 0 1 -13.75 3.95 7.326 7.326 0 0 1 -1.14-3.95 7.447 7.447 0 0 1 7.44-7.45 7.479 7.479 0 0 1 7.45 7.45z" fill="#4f5363"/><path d="m68.88 90.465a7.456 7.456 0 0 1 -7.45 7.45 7.312 7.312 0 0 1 -3.93-1.13 7.326 7.326 0 0 1 -1.14-3.95 7.447 7.447 0 0 1 7.44-7.45 7.353 7.353 0 0 1 3.94 1.14 7.267 7.267 0 0 1 1.14 3.94z" fill="#575b6d"/><path d="m91.63 84.225a7.446 7.446 0 0 1 -13.84 3.81 7.275 7.275 0 0 1 -1.06-3.81 7.45 7.45 0 0 1 14.9 0z" fill="#dd944b"/><path d="m89.05 81.645a7.441 7.441 0 0 1 -7.44 7.45 7.284 7.284 0 0 1 -3.82-1.06 7.275 7.275 0 0 1 -1.06-3.81 7.447 7.447 0 0 1 11.26-6.4 7.284 7.284 0 0 1 1.06 3.82z" fill="#eaa14e"/><path d="m106.28 24.085a2.074 2.074 0 0 1 -.46 1.31l-25.57 31.96-7.68 9.6-.6.75-.94-1.5-1.67-2.67-5.36-8.57 7.85-6.57 30.99-25.92a2.1 2.1 0 0 1 2.11-.35 2.177 2.177 0 0 1 .75.51 2.058 2.058 0 0 1 .58 1.45z" fill="#dd944b"/><path d="m105.09 22.9a2.074 2.074 0 0 1 -.46 1.31l-25.57 31.955-7.68 9.6-.35.44-1.67-2.67-5.36-8.57 7.85-6.57 30.99-25.92a2.1 2.1 0 0 1 2.11-.35 2.192 2.192 0 0 1 .14.775z" fill="#eaa14e"/><path d="m74.35 65.835c-.38 10.25-18.76 9-21.63 7.5a10.422 10.422 0 0 0 1.83-1.71 16.709 16.709 0 0 0 3.92-9.54c.38-3.97 2.06-6.1 3.63-7.23a5.294 5.294 0 0 1 5.31-.45c.11.05.22.11.34.16a11.421 11.421 0 0 1 6.6 11.27z" fill="#575b6d"/><path d="m70.72 63.165c-.26 7.33-9.74 8.78-16.17 8.46a16.709 16.709 0 0 0 3.92-9.54c.38-3.97 2.06-6.1 3.63-7.23a5.294 5.294 0 0 1 5.31-.45c.11.05.22.11.34.16a11.472 11.472 0 0 1 2.97 8.6z" fill="#62667c"/></g></svg>