<svg id="Capa_1" enable-background="new 0 0 512 512" height="512" viewBox="0 0 512 512" width="512" xmlns="http://www.w3.org/2000/svg"><g><g><path d="m481.469 352c12.63-29.625 19.598-62.242 19.531-96.496-.27-135.814-109.824-244.85-245.638-244.503-135.017.344-244.362 109.902-244.362 244.999 0 34.073 6.962 66.518 19.531 96 146.855 45.593 304.083 45.593 450.938 0z" fill="#fee45a"/></g><g><g><g><g><path d="m218.144 140.811c-23.73-23.73-56.892-32.271-87.417-25.635-1.944.423-3.457 1.936-3.879 3.879-6.636 30.525 1.905 63.687 25.635 87.417s56.892 32.271 87.417 25.635c1.944-.423 3.457-1.936 3.879-3.879 6.636-30.525-1.905-63.687-25.635-87.417z" fill="#97d729"/></g></g><g><path d="m215.691 214.626c-16.864-3.831-32.885-12.305-46.017-25.437-20.74-20.74-29.876-48.684-27.419-75.776-3.868.355-7.719.936-11.528 1.764-1.944.422-3.457 1.936-3.879 3.879-6.636 30.525 1.905 63.687 25.635 87.417 22.267 22.267 52.838 31.159 81.743 26.688z" fill="#8bc727"/></g><g><g><path d="m293.856 140.811c23.73-23.73 56.892-32.271 87.417-25.635 1.944.423 3.457 1.936 3.879 3.879 6.636 30.525-1.905 63.687-25.635 87.417s-56.892 32.271-87.417 25.635c-1.944-.423-3.457-1.936-3.879-3.879-6.636-30.525 1.905-63.687 25.635-87.417z" fill="#97d729"/></g></g><g><path d="m385.153 119.056c-.423-1.944-1.936-3.457-3.879-3.879-30.525-6.636-63.688 1.905-87.417 25.635-22.267 22.267-31.159 52.838-26.688 81.744l17.842-17.842c3.715-17.239 12.261-33.646 25.659-47.044 20.855-20.855 48.995-29.974 76.228-27.374-.359-3.772-.938-7.526-1.745-11.24z" fill="#8bc727"/></g></g><g><path d="m248.5 247.436v58.781c2.489-.142 4.989-.217 7.5-.217s5.011.075 7.5.217v-58.781l66.854-66.853c2.929-2.929 2.929-7.678 0-10.606-2.93-2.929-7.678-2.929-10.607 0l-63.747 63.746-63.747-63.747c-2.929-2.929-7.678-2.929-10.606 0-2.929 2.929-2.929 7.678 0 10.606z" fill="#78a91f"/></g></g><path d="m357.573 353c-24.117-29.305-60.657-48-101.573-48s-77.456 18.695-101.573 48z" fill="#d88a55"/><path d="m196.894 352c19.896-23.697 47.991-40.278 79.924-45.358-6.781-1.079-13.733-1.642-20.818-1.642-40.447 0-76.616 18.272-100.737 47z" fill="#c57a44"/><g><g><g><g><g><path d="m390.238 255.349c-16.839-16.839-40.276-23.051-61.988-18.644-1.968.399-3.513 1.945-3.913 3.913-4.407 21.711 1.805 45.149 18.644 61.988s40.276 23.051 61.988 18.644c1.968-.399 3.513-1.945 3.913-3.913 4.407-21.712-1.805-45.15-18.644-61.988z" fill="#97d729"/></g></g><path d="m384.792 307.766c-8.022-3.332-15.539-8.257-22.064-14.782-15.717-15.717-22.172-37.184-19.379-57.629-5.057-.105-10.123.34-15.098 1.35-1.968.399-3.514 1.945-3.913 3.913-4.407 21.711 1.805 45.149 18.644 61.988 15.353 15.353 36.193 21.868 56.208 19.558z" fill="#8bc727"/><g><g><path d="m444.728 255.349c16.839-16.839 40.276-23.051 61.988-18.644 1.968.399 3.513 1.945 3.913 3.913 4.407 21.711-1.805 45.149-18.644 61.988s-40.276 23.051-61.988 18.644c-1.968-.399-3.513-1.945-3.913-3.913-4.407-21.712 1.805-45.15 18.644-61.988z" fill="#97d729"/></g></g><g><path d="m510.628 240.618c-.399-1.968-1.945-3.514-3.913-3.913-21.711-4.407-45.149 1.805-61.988 18.644-15.353 15.353-21.867 36.192-19.558 56.207l19.499-19.499c3.321-7.638 8.099-14.795 14.346-21.041 14.512-14.512 33.925-21.123 52.91-19.855-.159-3.536-.589-7.062-1.296-10.543z" fill="#8bc727"/></g></g><path d="m409.983 332.958v20.042h15v-20.043l47.498-47.498c2.929-2.929 2.929-7.678 0-10.606-2.93-2.929-7.678-2.929-10.607 0l-44.391 44.391-44.391-44.391c-2.93-2.929-7.678-2.929-10.607 0s-2.929 7.678 0 10.606z" fill="#78a91f"/></g></g><g><g><g><g><g><path d="m67.272 255.349c-16.839-16.839-40.276-23.051-61.988-18.644-1.968.399-3.513 1.945-3.913 3.913-4.407 21.711 1.805 45.149 18.644 61.988s40.276 23.051 61.988 18.644c1.968-.399 3.513-1.945 3.913-3.913 4.407-21.712-1.805-45.15-18.644-61.988z" fill="#97d729"/></g></g><g><path d="m51.118 297.057c-5.094-2.933-9.891-6.574-14.246-10.929-13.964-13.964-20.612-32.466-19.965-50.758-3.897.116-7.787.556-11.623 1.334-1.968.399-3.513 1.945-3.913 3.913-4.407 21.711 1.805 45.149 18.644 61.988 15.354 15.354 36.193 21.868 56.208 19.558z" fill="#8bc727"/></g><g><g><path d="m121.762 255.349c16.839-16.839 40.276-23.051 61.988-18.644 1.968.399 3.513 1.945 3.913 3.913 4.407 21.711-1.805 45.149-18.644 61.988s-40.276 23.051-61.988 18.644c-1.968-.399-3.513-1.945-3.913-3.913-4.407-21.712 1.805-45.15 18.644-61.988z" fill="#97d729"/></g></g><g><path d="m187.663 240.618c-.399-1.968-1.945-3.514-3.913-3.913-21.711-4.407-45.149 1.805-61.988 18.644-15.352 15.352-21.866 36.188-19.558 56.201l22.302-22.297c3.271-6.958 7.759-13.487 13.51-19.237 13.995-13.995 32.549-20.642 50.881-19.96-.195-3.166-.602-6.32-1.234-9.438z" fill="#8bc727"/></g></g><path d="m87.017 332.957v20.043h15v-20.043l47.498-47.498c2.929-2.929 2.929-7.678 0-10.606-2.929-2.929-7.678-2.929-10.606 0l-44.392 44.383-44.392-44.383c-2.929-2.929-7.678-2.929-10.606 0-2.929 2.929-2.929 7.678 0 10.606z" fill="#78a91f"/></g></g><g><path d="m30.531 352c37.344 87.594 124.233 149 225.469 149s188.125-61.406 225.469-149z" fill="#f6a96c"/></g><g><g><path d="m263.22 462.5h-14.44c-4.142 0-7.5-3.358-7.5-7.5s3.358-7.5 7.5-7.5h14.44c4.143 0 7.5 3.358 7.5 7.5s-3.358 7.5-7.5 7.5z" fill="#d88a55"/></g><g><g><path d="m407 390.5h-14.44c-4.143 0-7.5-3.358-7.5-7.5s3.357-7.5 7.5-7.5h14.44c4.143 0 7.5 3.358 7.5 7.5s-3.357 7.5-7.5 7.5z" fill="#d88a55"/></g><g><path d="m119.44 390.5h-14.44c-4.142 0-7.5-3.358-7.5-7.5s3.358-7.5 7.5-7.5h14.44c4.142 0 7.5 3.358 7.5 7.5s-3.357 7.5-7.5 7.5z" fill="#d88a55"/></g></g><g><g><path d="m333.971 430.686h-14.44c-4.143 0-7.5-3.358-7.5-7.5s3.357-7.5 7.5-7.5h14.44c4.143 0 7.5 3.358 7.5 7.5s-3.358 7.5-7.5 7.5z" fill="#fff"/></g><g><path d="m192.47 430.686h-14.44c-4.142 0-7.5-3.358-7.5-7.5s3.358-7.5 7.5-7.5h14.44c4.142 0 7.5 3.358 7.5 7.5s-3.358 7.5-7.5 7.5z" fill="#fff"/></g></g><g><path d="m263.22 390.5h-14.44c-4.142 0-7.5-3.358-7.5-7.5s3.358-7.5 7.5-7.5h14.44c4.143 0 7.5 3.358 7.5 7.5s-3.358 7.5-7.5 7.5z" fill="#d88a55"/></g></g></g></svg>